{
  "accessors": [
    {
      "name": "Mesh1 Group1 Component_8_1 Model_1_0_positions",
      "componentType": 5126,
      "count": 52,
      "min": [
        1.1347600221633911,
        1.3969899415969849,
        -0.1887509971857071
      ],
      "max": [
        1.3725600242614746,
        1.4196300506591797,
        -0.14345599710941315
      ],
      "type": "VEC3",
      "bufferView": 0,
      "byteOffset": 0
    },
    {
      "name": "Mesh1 Group1 Component_8_1 Model_1_0_normals",
      "componentType": 5126,
      "count": 52,
      "min": [
        -1,
        -1,
        -1
      ],
      "max": [
        1,
        1,
        1
      ],
      "type": "VEC3",
      "bufferView": 1,
      "byteOffset": 0
    },
    {
      "name": "Mesh1 Group1 Component_8_1 Model_1_0_texcoords",
      "componentType": 5126,
      "count": 52,
      "min": [
        -8.267720222473145,
        -0.5748000144958496
      ],
      "max": [
        8.267720222473145,
        1
      ],
      "type": "VEC2",
      "bufferView": 2,
      "byteOffset": 0
    },
    {
      "name": "Mesh1 Group1 Component_8_1 Model_1_0_indices",
      "componentType": 5123,
      "count": 96,
      "min": [
        0
      ],
      "max": [
        51
      ],
      "type": "SCALAR",
      "bufferView": 3,
      "byteOffset": 0
    },
    {
      "name": "Mesh2 Group2 Component_8_1 Model_1_0_positions",
      "componentType": 5126,
      "count": 52,
      "min": [
        1.1331499814987183,
        1.3144899606704712,
        -0.1887509971857071
      ],
      "max": [
        1.370959997177124,
        1.3371299505233765,
        -0.14345599710941315
      ],
      "type": "VEC3",
      "bufferView": 0,
      "byteOffset": 624
    },
    {
      "name": "Mesh2 Group2 Component_8_1 Model_1_0_normals",
      "componentType": 5126,
      "count": 52,
      "min": [
        -1,
        -1,
        -1
      ],
      "max": [
        1,
        1,
        1
      ],
      "type": "VEC3",
      "bufferView": 1,
      "byteOffset": 624
    },
    {
      "name": "Mesh2 Group2 Component_8_1 Model_1_0_texcoords",
      "componentType": 5126,
      "count": 52,
      "min": [
        -8.267720222473145,
        -0.5748000144958496
      ],
      "max": [
        8.267720222473145,
        1
      ],
      "type": "VEC2",
      "bufferView": 2,
      "byteOffset": 416
    },
    {
      "name": "Mesh2 Group2 Component_8_1 Model_1_0_indices",
      "componentType": 5123,
      "count": 96,
      "min": [
        0
      ],
      "max": [
        51
      ],
      "type": "SCALAR",
      "bufferView": 3,
      "byteOffset": 192
    },
    {
      "name": "Mesh3 Component_8_1 Model_1_0_positions",
      "componentType": 5126,
      "count": 120,
      "min": [
        1.134559988975525,
        -1.2394499709482984e-15,
        -0.919185996055603
      ],
      "max": [
        1.1798499822616577,
        0.02264760062098503,
        -0.8738909959793091
      ],
      "type": "VEC3",
      "bufferView": 0,
      "byteOffset": 1248
    },
    {
      "name": "Mesh3 Component_8_1 Model_1_0_normals",
      "componentType": 5126,
      "count": 120,
      "min": [
        -1,
        -1,
        -1
      ],
      "max": [
        1,
        3.435951100228892e-18,
        1
      ],
      "type": "VEC3",
      "bufferView": 1,
      "byteOffset": 1248
    },
    {
      "name": "Mesh3 Component_8_1 Model_1_0_texcoords",
      "componentType": 5126,
      "count": 120,
      "min": [
        -26.265399932861328,
        -25.970199584960938
      ],
      "max": [
        26.265399932861328,
        1
      ],
      "type": "VEC2",
      "bufferView": 2,
      "byteOffset": 832
    },
    {
      "name": "Mesh3 Component_8_1 Model_1_0_indices",
      "componentType": 5123,
      "count": 210,
      "min": [
        0
      ],
      "max": [
        119
      ],
      "type": "SCALAR",
      "bufferView": 3,
      "byteOffset": 384
    },
    {
      "name": "Mesh3 Component_8_1 Model_1_1_positions",
      "componentType": 5126,
      "count": 867,
      "min": [
        1.1122900247573853,
        -1.4438199628794479e-15,
        -0.9455540180206299
      ],
      "max": [
        1.8823100328445435,
        2.0722599029541016,
        -0.1887509971857071
      ],
      "type": "VEC3",
      "bufferView": 0,
      "byteOffset": 2688
    },
    {
      "name": "Mesh3 Component_8_1 Model_1_1_normals",
      "componentType": 5126,
      "count": 867,
      "min": [
        -1,
        -1,
        -1
      ],
      "max": [
        1,
        1,
        1
      ],
      "type": "VEC3",
      "bufferView": 1,
      "byteOffset": 2688
    },
    {
      "name": "Mesh3 Component_8_1 Model_1_1_texcoords",
      "componentType": 5126,
      "count": 867,
      "min": [
        -35.584800720214844,
        -71.04720306396484
      ],
      "max": [
        35.584800720214844,
        1
      ],
      "type": "VEC2",
      "bufferView": 2,
      "byteOffset": 1792
    },
    {
      "name": "Mesh3 Component_8_1 Model_1_1_indices",
      "componentType": 5123,
      "count": 3000,
      "min": [
        0
      ],
      "max": [
        866
      ],
      "type": "SCALAR",
      "bufferView": 3,
      "byteOffset": 804
    }
  ],
  "asset": {
    "generator": "obj2gltf",
    "version": "2.0"
  },
  "buffers": [
    {
      "name": "Refrigerator",
      "byteLength": 41716,
      "uri": "data:application/octet-stream;base64,"
    }
  ],
  "bufferViews": [
    {
      "name": "bufferView_0",
      "buffer": 0,
      "byteLength": 13092,
      "byteOffset": 0,
      "byteStride": 12,
      "target": 34962
    },
    {
      "name": "bufferView_1",
      "buffer": 0,
      "byteLength": 13092,
      "byteOffset": 13092,
      "byteStride": 12,
      "target": 34962
    },
    {
      "name": "bufferView_2",
      "buffer": 0,
      "byteLength": 8728,
      "byteOffset": 26184,
      "byteStride": 8,
      "target": 34962
    },
    {
      "name": "bufferView_3",
      "buffer": 0,
      "byteLength": 6804,
      "byteOffset": 34912,
      "target": 34963
    }
  ],
  "materials": [
    {
      "name": "Color_006",
      "pbrMetallicRoughness": {
        "baseColorFactor": [
          0.337255,
          0.337255,
          0.337255,
          1
        ],
        "metallicFactor": 0,
        "roughnessFactor": 1
      },
      "emissiveFactor": [
        0,
        0,
        0
      ],
      "alphaMode": "OPAQUE",
      "doubleSided": false
    },
    {
      "name": "Color_000",
      "pbrMetallicRoughness": {
        "baseColorFactor": [
          1,
          1,
          1,
          1
        ],
        "metallicFactor": 0,
        "roughnessFactor": 1
      },
      "emissiveFactor": [
        0,
        0,
        0
      ],
      "alphaMode": "OPAQUE",
      "doubleSided": false
    }
  ],
  "meshes": [
    {
      "name": "Mesh1 Group1 Component_8_1 Model_1",
      "primitives": [
        {
          "attributes": {
            "POSITION": 0,
            "NORMAL": 1,
            "TEXCOORD_0": 2
          },
          "indices": 3,
          "material": 0,
          "mode": 4
        }
      ]
    },
    {
      "name": "Mesh2 Group2 Component_8_1 Model_1",
      "primitives": [
        {
          "attributes": {
            "POSITION": 4,
            "NORMAL": 5,
            "TEXCOORD_0": 6
          },
          "indices": 7,
          "material": 0,
          "mode": 4
        }
      ]
    },
    {
      "name": "Mesh3 Component_8_1 Model_1",
      "primitives": [
        {
          "attributes": {
            "POSITION": 8,
            "NORMAL": 9,
            "TEXCOORD_0": 10
          },
          "indices": 11,
          "material": 0,
          "mode": 4
        },
        {
          "attributes": {
            "POSITION": 12,
            "NORMAL": 13,
            "TEXCOORD_0": 14
          },
          "indices": 15,
          "material": 1,
          "mode": 4
        }
      ]
    }
  ],
  "nodes": [
    {
      "name": "Mesh1 Group1 Component_8_1 Model",
      "mesh": 0
    },
    {
      "name": "Mesh2 Group2 Component_8_1 Model",
      "mesh": 1
    },
    {
      "name": "Mesh3 Component_8_1 Model",
      "mesh": 2
    }
  ],
  "scene": 0,
  "scenes": [
    {
      "nodes": [
        0,
        1,
        2
      ]
    }
  ]
}
